<svg fill="#000000" height="164px" width="164px" version="1.1" id="Layer_1" xmlns="http://www.w3.org/2000/svg" xmlns:xlink="http://www.w3.org/1999/xlink" viewBox="0 0 512 512" xml:space="preserve"><g id="SVGRepo_bgCarrier" stroke-width="0"></g><g id="SVGRepo_tracerCarrier" stroke-linecap="round" stroke-linejoin="round"></g><g id="SVGRepo_iconCarrier"> <g> <g> <path d="M256,0c-26.193,0-47.504,21.31-47.504,47.504S229.807,95.006,256,95.006s47.504-21.31,47.504-47.504S282.193,0,256,0z"></path> </g> </g> <g> <g> <path d="M333.454,175.947l-20.538-61.615c-2.273-6.817-8.653-11.417-15.839-11.417h-82.155c-7.186,0-13.566,4.599-15.839,11.417 l-20.538,61.615c-3.603,10.807,4.457,21.975,15.839,21.975h123.231C329.008,197.921,337.053,186.744,333.454,175.947z"></path> </g> </g> <g> <g> <path d="M112.334,314.077c-26.194,0-47.504,21.31-47.504,47.504c0,26.193,21.31,47.504,47.504,47.504s47.505-21.31,47.505-47.504 C159.839,335.388,138.528,314.077,112.334,314.077z"></path> </g> </g> <g> <g> <path d="M189.789,490.025l-20.539-61.616c-2.273-6.817-8.653-11.416-15.839-11.416H71.258c-7.186,0-13.566,4.599-15.839,11.416 L34.88,490.024C31.278,500.832,39.337,512,50.719,512h123.232C185.343,512,193.388,500.823,189.789,490.025z"></path> </g> </g> <g> <g> <path d="M399.666,314.077c-26.193,0-47.505,21.31-47.505,47.504c0,26.193,21.311,47.504,47.505,47.504s47.504-21.31,47.504-47.504 C447.17,335.388,425.859,314.077,399.666,314.077z"></path> </g> </g> <g> <g> <path d="M477.12,490.025l-20.539-61.615c-2.273-6.817-8.653-11.416-15.839-11.416h-82.154c-7.186,0-13.566,4.599-15.839,11.416 l-20.539,61.615C318.61,500.832,326.669,512,338.05,512h123.232C472.673,512,480.719,500.823,477.12,490.025z"></path> </g> </g> <g> <g> <path d="M314.46,347.453l-41.768-41.767v-59.067c0-9.22-7.475-16.696-16.696-16.696c-9.22,0-16.696,7.475-16.696,16.696v59.067 l-41.767,41.767c-6.52,6.519-6.52,17.091,0,23.611c6.52,6.519,17.09,6.52,23.611,0l34.853-34.853l34.852,34.853 c6.518,6.52,17.09,6.52,23.611,0C320.98,364.545,320.98,353.975,314.46,347.453z"></path> </g> </g> </g></svg>