<svg version="1.1" id="Layer_1" xmlns="http://www.w3.org/2000/svg" xmlns:xlink="http://www.w3.org/1999/xlink" x="0px" y="0px"
	 width="100%" viewBox="0 0 224 272" enable-background="new 0 0 224 272" xml:space="preserve">
<path fill="#000000" opacity="1.000000" stroke="none" 
	d="
M71.468536,273.000000 
	C68.794220,269.196136 66.092545,266.344879 61.091423,267.035858 
	C59.326481,267.279694 57.409084,267.035065 56.476593,264.209412 
	C65.074669,263.365692 72.828880,260.296448 80.660507,256.110535 
	C81.369064,259.897675 79.262825,261.151306 77.277870,262.629700 
	C73.638214,265.340485 73.740967,267.297241 77.463989,269.886871 
	C81.522446,272.709808 86.474579,271.987335 89.495552,268.131592 
	C92.592079,264.179443 92.243347,259.407684 88.489655,256.022552 
	C85.557907,253.378601 81.833069,252.117294 78.157402,251.204788 
	C66.033005,248.194824 57.468060,241.216003 51.961552,229.936920 
	C49.275387,224.434769 45.451950,219.483841 42.098770,214.312286 
	C37.590523,207.359344 35.418732,199.867081 36.593540,191.539413 
	C37.147102,187.615479 37.157566,184.035278 32.924049,181.643921 
	C30.773315,180.429062 30.537031,177.844208 31.013916,175.343338 
	C31.385057,173.396988 31.436195,171.391907 31.705175,169.423279 
	C32.299667,165.072205 30.751396,162.866394 26.130114,161.892746 
	C19.956774,160.592117 16.688911,155.956436 15.756107,149.811188 
	C15.281928,146.687332 15.072915,143.519241 14.840739,140.364029 
	C14.690634,138.324142 14.517130,136.047012 13.054344,134.759476 
	C8.126140,130.421692 7.393745,123.521996 2.936425,118.890251 
	C1.162621,117.047035 1.566356,114.381462 2.149156,111.150375 
	C6.053943,114.664101 9.575522,117.309273 13.840137,118.496284 
	C11.332790,128.129929 13.706750,131.209351 22.144335,129.615707 
	C24.805866,132.405304 21.162020,135.658707 22.569107,138.499588 
	C24.393082,139.675903 26.551311,136.951340 28.285961,139.283554 
	C28.604736,141.701752 26.370907,142.834991 25.180035,144.506760 
	C23.288090,147.162735 22.657642,149.918152 24.091173,152.944992 
	C25.470259,155.856857 27.862133,157.202377 31.002560,156.699631 
	C33.449585,156.307846 35.422890,157.969910 38.230091,157.966003 
	C39.895622,150.636032 39.813206,143.238434 39.602749,135.826828 
	C39.515190,132.743286 40.006786,130.119324 44.380886,130.585388 
	C45.184719,134.025162 42.372913,138.644775 46.568802,140.609207 
	C49.646835,142.050278 51.295067,137.640747 55.518044,137.717529 
	C50.176884,131.109207 53.242535,126.289101 56.644302,121.509850 
	C58.897755,118.343910 60.497547,114.789963 61.293839,111.061409 
	C63.870792,98.995178 72.193016,92.942528 87.620392,91.714516 
	C95.117035,91.117783 102.572388,93.021210 109.977425,93.153435 
	C122.794708,93.382317 133.886597,96.452637 143.866913,104.932518 
	C148.804871,109.128090 155.908188,110.567795 160.678131,115.486900 
	C162.289551,117.148712 164.417755,116.500076 166.937347,116.593056 
	C168.227798,126.534836 173.724030,134.517349 180.712936,142.025009 
	C176.858994,143.542969 175.164536,139.799438 172.007217,140.067596 
	C170.243195,144.095398 168.395828,148.079422 163.659500,150.308853 
	C160.467834,151.811188 163.758148,154.043137 164.118484,156.296906 
	C167.383530,154.805679 168.594894,151.243546 172.388062,151.345963 
	C172.574142,156.265991 166.975830,158.805084 167.744110,163.842880 
	C171.619293,164.643250 174.714996,159.602173 179.068649,162.949234 
	C176.972351,167.206650 177.012589,171.586624 181.864594,176.039276 
	C170.358017,175.274231 168.341599,183.720490 164.839279,190.207703 
	C162.302338,194.906799 158.480713,197.452072 152.706635,200.363113 
	C157.254517,190.185654 159.685898,180.853622 161.327713,170.152802 
	C155.642029,173.215073 150.897034,173.361053 145.885788,170.653000 
	C143.502853,169.365250 140.319809,170.298798 137.502151,170.658340 
	C127.249863,171.966476 119.506470,167.169098 112.657112,160.325378 
	C110.749619,158.419449 111.513565,156.883789 113.534691,155.442566 
	C123.684441,148.204956 138.177078,151.141434 144.677856,161.736633 
	C145.795822,163.558731 147.127823,165.359161 148.723648,166.754898 
	C151.749588,169.401443 155.120361,169.337387 158.332687,166.958908 
	C161.418900,164.673828 161.294296,161.624405 160.073868,158.416901 
	C156.064896,147.880569 145.670837,142.739716 134.499985,145.863281 
	C131.619812,146.668610 128.856934,147.886139 125.992455,148.757416 
	C124.092247,149.335388 122.120216,149.900467 120.157043,149.996857 
	C117.059822,150.148926 113.847549,149.695023 112.944405,146.065384 
	C111.997665,142.260529 114.471550,140.019302 117.638084,138.855331 
	C122.816422,136.951843 128.239609,135.960892 133.765930,135.753067 
	C136.928162,135.634155 140.113937,135.914032 143.260681,135.660843 
	C148.827621,135.212967 153.336197,136.799835 156.901840,141.285599 
	C158.416702,143.191376 160.458313,145.221909 163.280167,144.280838 
	C166.289871,143.277100 166.577362,140.383804 166.891632,137.697525 
	C167.270477,134.459183 166.723831,131.431931 165.065430,128.562988 
	C162.535843,124.186913 159.681747,119.952202 155.501190,117.147911 
	C141.156387,107.525482 127.086639,97.403351 108.547371,97.201340 
	C100.929794,97.118332 93.313850,95.647255 85.630821,96.337868 
	C75.714607,97.229225 68.692543,101.872063 65.711464,111.741882 
	C64.157913,116.885399 61.430302,121.488899 59.044018,126.251617 
	C58.302605,127.731377 57.415810,129.453125 58.869751,130.873810 
	C60.256577,132.228912 61.775875,131.014420 62.955719,130.270264 
	C74.069427,123.260559 85.599220,131.276825 93.219795,138.471573 
	C95.347885,140.480774 95.661469,143.459717 94.283279,146.388443 
	C92.596741,149.972412 89.528099,150.094345 86.258842,149.733826 
	C85.823036,157.707291 84.910469,158.471344 76.616737,159.292542 
	C66.546783,160.289612 57.872810,157.446167 50.508774,150.503784 
	C49.717495,149.757812 49.132000,148.590515 47.261387,148.619568 
	C47.937317,157.912689 46.479782,166.811279 41.806320,174.982025 
	C42.863297,188.703842 39.880264,203.063354 48.840950,215.502991 
	C52.726086,220.896530 56.056278,226.702560 59.456287,232.429443 
	C63.413284,239.094528 69.395798,243.030685 76.430901,245.700287 
	C79.855843,246.999969 83.322678,248.217560 86.655235,249.726913 
	C96.022408,253.969406 98.288925,261.052032 93.315125,270.083527 
	C92.914871,270.810333 92.563515,271.564056 92.094719,272.652649 
	C85.312355,273.000000 78.624710,273.000000 71.468536,273.000000 
M59.717785,142.983307 
	C65.448494,139.277328 71.514397,142.801727 77.924187,142.757767 
	C73.112144,137.436966 73.100449,137.387604 59.159695,140.691208 
	C56.707451,141.272324 53.481770,141.320923 53.190937,145.234558 
	C55.575539,145.245621 57.222374,144.019043 59.717785,142.983307 
M81.285187,139.283569 
	C82.724792,140.662781 84.083038,142.143661 85.633408,143.384476 
	C86.622147,144.175797 87.935562,145.127792 89.131409,143.669937 
	C90.023483,142.582413 89.503815,141.450989 88.707664,140.506882 
	C85.786148,137.042450 82.060883,135.211777 76.548843,134.233124 
	C78.556374,136.374893 79.685745,137.579773 81.285187,139.283569 
M124.380440,155.713531 
	C128.890244,157.211304 133.400055,158.709061 138.683823,160.463867 
	C135.055237,154.017426 129.802414,155.130173 124.380440,155.713531 
z"/>
<path fill="#000000" opacity="1.000000" stroke="none" 
	d="
M225.000000,113.545898 
	C223.302887,115.583946 221.605759,117.167885 219.660034,118.983856 
	C226.020538,132.141617 223.111908,145.491791 216.399933,156.697021 
	C210.126572,167.169983 204.679169,178.862717 194.276642,186.578522 
	C190.378448,189.469894 185.765320,191.053711 181.638916,193.837814 
	C182.152557,195.548416 182.733963,197.095978 183.077667,198.694672 
	C184.838684,206.885284 180.749161,212.436905 172.474442,213.141403 
	C170.981415,213.268509 169.469940,213.213669 167.985001,213.392548 
	C166.012207,213.630219 162.796631,212.378494 162.702957,215.447571 
	C162.616577,218.277710 161.319000,222.137726 166.141006,223.544403 
	C171.414047,225.082642 174.442871,228.995773 174.807983,234.586487 
	C175.030121,237.988281 174.686340,241.525421 171.471878,243.473312 
	C168.223526,245.441727 164.640518,245.779205 161.228165,243.558395 
	C161.210968,241.236633 163.028564,241.180130 164.305695,240.706512 
	C167.529495,239.511002 169.180832,237.344025 168.936157,233.866180 
	C168.665466,230.018677 166.002167,228.436234 162.733002,227.659271 
	C154.213181,225.634399 142.864136,234.221451 141.373108,243.858368 
	C141.045532,245.975586 141.185501,248.169342 141.165878,250.328369 
	C141.154816,251.544861 141.150589,252.827759 139.693146,253.112732 
	C138.290665,253.386948 137.551025,252.272858 137.145630,251.167221 
	C136.633621,249.770828 135.946167,248.259445 136.045746,246.847855 
	C136.599762,238.995407 137.800720,231.296707 142.480804,224.603867 
	C143.807037,222.707245 145.525574,221.505997 147.745148,221.123169 
	C152.691254,220.270050 155.859543,217.660309 156.975235,212.603851 
	C157.825119,208.752213 160.328247,207.334717 164.070221,208.747391 
	C169.108688,210.649551 173.033264,207.104126 177.409042,205.990723 
	C179.329971,205.501953 179.588882,202.778793 177.702423,201.546097 
	C175.362732,200.017242 174.843719,198.074387 174.913498,195.612839 
	C174.931976,194.960800 174.956253,193.931427 174.587646,193.701859 
	C167.671143,189.394257 173.377029,186.501846 175.727966,183.205505 
	C177.484528,183.138245 178.189316,184.693863 179.317810,185.590454 
	C182.962357,188.486160 184.994431,187.752228 185.814926,183.048859 
	C186.351089,179.975250 188.484497,179.830902 190.663727,180.359940 
	C194.026810,181.176392 195.698013,179.851410 196.537964,176.740845 
	C196.833633,175.645874 197.221756,174.036301 198.010559,173.699753 
	C204.120087,171.093063 203.124603,164.531311 205.823013,160.064514 
	C206.111252,159.587387 206.178131,158.652588 205.901169,158.208771 
	C203.500015,154.361130 206.585297,152.802597 208.898529,151.032486 
	C210.344208,149.926239 212.027039,149.133102 213.584396,148.168671 
	C215.123291,147.215668 216.511536,145.629410 215.544861,144.065475 
	C213.280777,140.402496 214.145325,137.335175 215.863068,133.775650 
	C218.579788,128.146011 219.659103,122.553345 211.815125,120.612122 
	C211.917313,113.614555 220.356079,114.834366 221.310196,109.015251 
	C218.217422,107.323509 215.641235,105.074768 213.396606,102.402321 
	C211.374619,99.994972 211.193924,98.381111 214.702621,97.464058 
	C216.225098,97.066139 218.123840,96.844078 218.210846,93.873634 
	C211.673889,94.127739 208.608002,87.322693 202.443115,86.570702 
	C202.471756,83.193092 204.598068,83.605370 206.310608,83.933876 
	C207.922699,84.243118 209.445923,85.027000 211.000336,85.622681 
	C213.246231,86.483322 215.470261,87.216644 217.417175,85.004601 
	C218.786514,83.448776 219.009430,81.715042 218.020294,79.924240 
	C216.711624,77.554901 215.279160,75.314400 212.089767,75.232384 
	C210.443665,75.190041 208.898636,76.332657 206.602997,75.403435 
	C207.106461,70.703400 207.049332,66.040627 203.543198,61.772663 
	C202.213226,60.153717 204.456100,56.635647 205.825134,54.469540 
	C208.446030,50.322777 208.324707,47.488857 203.408035,45.499359 
	C202.100693,44.970364 201.096527,43.692097 199.834152,42.660587 
	C196.148834,43.926086 193.065201,48.580486 187.619659,44.843712 
	C191.502945,40.742577 198.275360,38.906612 197.246277,31.969351 
	C196.882492,29.517052 195.932800,27.132416 193.460648,25.724270 
	C190.921249,26.438366 191.049332,29.088312 189.822052,30.724443 
	C188.545776,32.425961 186.884399,34.097191 184.838608,32.847607 
	C182.569412,31.461578 184.308029,29.610846 185.345963,28.203518 
	C187.906708,24.731367 189.062149,21.391565 184.927612,18.249151 
	C181.239441,15.446001 175.823608,15.780352 172.750336,19.547291 
	C169.713058,23.270153 167.377747,26.446301 161.748154,23.024740 
	C158.756485,21.206470 158.585114,26.638578 155.880081,27.391104 
	C153.108002,26.814768 153.783096,24.558565 153.852676,22.665096 
	C153.932632,20.489094 154.092987,18.351507 152.770462,16.405325 
	C149.549484,11.665473 145.480927,11.982567 140.414825,17.766727 
	C137.568008,11.734464 135.501770,5.093391 126.998940,5.097634 
	C118.871315,5.101691 116.038002,11.520055 112.087807,17.187153 
	C109.662872,14.792955 110.712395,12.406159 110.736298,10.286049 
	C110.788528,5.652801 109.379715,4.567967 105.060432,6.329853 
	C100.680664,8.116416 97.869453,11.029588 98.274475,16.214769 
	C98.398308,17.800037 98.834297,19.533522 97.512512,21.205454 
	C94.189255,20.337822 93.691071,17.488649 93.083435,14.780076 
	C91.850510,9.284190 88.976761,6.832476 84.424896,7.489271 
	C78.986816,8.273939 75.057014,12.518064 75.183357,17.525299 
	C75.220375,18.992617 75.388184,20.456635 75.534691,22.447226 
	C71.043098,21.777622 66.840225,21.089239 62.653790,22.677788 
	C59.934147,23.709761 60.303452,20.718493 59.647465,19.451677 
	C51.771587,20.520622 50.950882,21.341362 44.265057,34.578197 
	C41.928833,34.525742 41.957584,32.746819 41.660122,31.109085 
	C40.939861,27.143579 38.323013,26.248173 35.124577,28.822136 
	C33.641438,30.015701 32.863552,31.683535 32.135784,33.370338 
	C30.851290,36.347515 29.353209,39.049744 25.808290,39.883850 
	C24.478598,40.196720 23.509874,41.213654 22.824776,42.408833 
	C20.991837,45.606468 22.114027,49.410904 20.950211,52.613876 
	C19.309885,57.128262 22.715611,58.508488 25.020189,60.664043 
	C26.471395,62.021416 27.695738,63.352448 26.078838,65.307526 
	C22.970877,69.065529 24.032970,72.362801 27.236216,75.187370 
	C26.527893,77.138855 24.976776,76.891510 23.774958,77.012718 
	C18.503536,77.544334 15.153613,80.046890 14.162463,85.484619 
	C13.904708,86.898743 13.111837,88.327950 12.228121,89.495422 
	C8.801252,94.022614 5.238636,98.447044 1.363281,102.954865 
	C1.000000,102.555557 1.000000,102.111107 1.140131,100.953674 
	C1.470634,97.435158 1.694430,94.631371 1.839613,91.823502 
	C1.936197,89.955551 2.048118,88.089844 3.814982,86.966347 
	C8.493855,83.991173 9.997051,79.350693 10.549388,74.228569 
	C10.883283,71.132179 11.959826,68.387619 14.267232,66.283447 
	C17.018578,63.774464 17.209278,61.039829 15.787169,57.729610 
	C12.897019,51.002251 12.899822,44.116440 17.592592,38.385288 
	C22.072100,32.914585 26.700418,26.321075 32.768288,23.683897 
	C42.145344,19.608498 51.520927,14.815565 61.704762,12.832821 
	C65.119392,12.168008 67.819839,11.295036 70.465157,8.943246 
	C76.328056,3.730904 82.802429,-0.609551 91.113426,3.431608 
	C95.077698,5.359202 97.752541,4.423728 100.000000,1.000000 
	C100.444443,1.000000 100.888893,1.000000 102.044525,1.151662 
	C112.235939,1.471226 121.715996,1.648483 131.196472,1.799969 
	C133.367081,1.834653 135.462234,1.774726 137.222992,3.516727 
	C139.723526,5.990609 142.922058,6.596894 146.371414,6.825233 
	C152.834152,7.253049 159.651062,7.174634 165.225693,10.770349 
	C169.368134,13.442277 172.637573,13.539607 177.142410,11.824334 
	C185.514557,8.636542 201.752838,20.625187 202.155273,30.261629 
	C202.369583,35.393501 204.137497,39.157486 207.960098,42.327381 
	C211.789551,45.502975 213.377304,49.625252 211.463028,54.372032 
	C209.219833,59.934410 211.623291,63.244514 215.757278,66.734840 
	C222.038910,72.038399 225.371399,78.688141 223.744995,87.469696 
	C222.734879,92.923744 221.983444,98.695572 225.000000,104.000000 
	C225.000000,107.030594 225.000000,110.061188 225.000000,113.545898 
M160.223267,16.500404 
	C161.605835,16.832115 163.063889,17.423693 163.950867,15.171771 
	C162.689041,13.943012 161.232697,12.850275 159.409256,13.744532 
	C158.232224,14.321777 159.149078,15.387979 160.223267,16.500404 
z"/>
<path fill="#000000" opacity="1.000000" stroke="none" 
	d="
M147.428467,273.000000 
	C148.725922,267.269043 142.120346,265.883575 140.184708,260.760010 
	C146.457520,261.351135 151.770340,260.759552 156.936157,256.634888 
	C160.239563,266.787781 167.518509,265.836578 174.727646,263.520111 
	C176.265900,265.455658 173.936386,266.733246 174.935684,268.168671 
	C179.954681,270.506561 184.343933,269.762634 188.430984,265.687561 
	C196.617645,257.524811 191.836365,250.408264 185.792786,243.537827 
	C192.263458,241.995117 192.263458,241.995117 191.913345,233.645905 
	C196.308334,233.948456 197.304413,236.877945 197.184357,240.411224 
	C197.129684,242.020004 196.338531,243.600601 195.904282,245.200165 
	C194.299530,251.111496 196.560028,255.580460 202.116623,257.593048 
	C209.789627,260.372162 216.904861,263.839752 219.927704,272.658020 
	C217.299988,273.000000 214.599976,273.000000 211.350281,272.643188 
	C209.707428,266.396881 206.230469,262.896759 200.348068,261.701019 
	C198.512054,261.327820 196.867401,261.513611 196.111496,263.315735 
	C194.266876,267.713440 190.283905,270.009308 187.000000,273.000000 
	C181.645065,273.000000 176.290146,273.000000 170.280579,272.719543 
	C168.082382,270.378662 165.729950,269.492615 163.565948,268.383942 
	C157.789673,265.424500 155.259216,266.565430 153.000000,273.000000 
	C151.285645,273.000000 149.571289,273.000000 147.428467,273.000000 
z"/>
<path fill="#000000" opacity="1.000000" stroke="none" 
	d="
M99.416664,273.000000 
	C96.671112,265.971893 99.259033,259.673035 102.375862,253.617462 
	C99.930153,251.633041 97.314407,251.730774 94.982246,251.012436 
	C88.243507,248.936844 85.588646,245.364944 86.643768,238.352097 
	C87.469048,232.867004 86.371010,229.342407 80.439049,227.977554 
	C77.432991,227.285919 75.072258,225.318710 75.259758,221.220184 
	C82.222847,221.259140 89.093552,221.006714 95.743156,223.396652 
	C98.405151,224.353378 98.968208,226.080246 97.662254,228.470154 
	C96.945923,229.781052 96.213974,231.119431 95.266968,232.261215 
	C92.896866,235.118729 91.048569,238.066132 93.570274,241.685577 
	C96.190315,245.446167 99.944092,246.911896 104.435120,246.207779 
	C108.691666,245.540405 112.168663,243.325912 115.280983,240.409790 
	C116.689224,239.090347 118.474190,237.054138 120.355629,238.912415 
	C122.152924,240.687546 119.816010,242.194305 118.766838,243.491959 
	C115.419151,247.632538 111.926376,251.655746 108.492722,255.726898 
	C104.471016,260.495300 103.313232,266.033936 104.050613,272.546875 
	C102.611107,273.000000 101.222221,273.000000 99.416664,273.000000 
z"/>
<path fill="#000000" opacity="1.000000" stroke="none" 
	d="
M44.399994,273.000000 
	C46.180592,266.055115 44.601398,259.582703 40.623131,252.300430 
	C48.523022,254.475677 55.324314,256.770996 62.765617,256.338318 
	C62.477764,259.523712 60.822861,260.681915 58.712982,260.414124 
	C52.655975,259.645294 50.058807,262.246918 49.989510,268.183044 
	C49.973454,269.558533 48.870819,270.921356 48.134083,272.645020 
	C46.933331,273.000000 45.866661,273.000000 44.399994,273.000000 
z"/>
<path fill="#000000" opacity="1.000000" stroke="none" 
	d="
M1.000000,271.500000 
	C3.686484,270.606689 6.285178,271.426849 8.925727,271.563019 
	C13.905636,271.819763 18.849022,271.941467 23.557039,269.536255 
	C26.009129,268.283569 29.149471,267.275848 28.120144,272.662567 
	C19.666668,273.000000 11.333077,273.026703 3.000513,272.946686 
	C2.369201,272.940613 0.847338,273.971985 1.000000,271.500000 
z"/>
<path fill="#000000" opacity="1.000000" stroke="none" 
	d="
M95.245499,221.043182 
	C89.742973,220.078842 84.678802,219.194702 79.637589,218.194824 
	C76.963867,217.664505 74.692085,216.232407 72.777054,214.344955 
	C69.828690,211.439072 66.977127,208.434296 64.109383,205.447586 
	C62.734520,204.015701 62.237339,201.884918 64.481506,201.597885 
	C71.686028,200.676483 77.428368,195.711975 84.719841,194.987366 
	C96.731750,193.793701 111.722794,202.535995 115.984619,213.658646 
	C116.782928,215.742096 116.565872,217.565964 114.179085,217.821335 
	C107.933838,218.489594 102.214333,222.082916 95.245499,221.043182 
M92.537888,216.768082 
	C97.404068,218.602646 101.533379,216.588669 105.802444,214.490738 
	C100.427406,208.425186 78.824654,204.381851 73.087540,208.268036 
	C74.776558,212.541809 78.476265,213.929443 82.512444,214.552246 
	C85.645477,215.035706 88.766525,215.459976 92.537888,216.768082 
M103.632812,206.222153 
	C100.338554,200.822495 85.903618,197.638016 80.721718,201.178314 
	C80.614044,201.251862 80.609352,201.476135 80.397804,202.093796 
	C88.018929,203.573608 95.582970,205.042328 103.632812,206.222153 
z"/>
<path fill="#000000" opacity="1.000000" stroke="none" 
	d="
M114.777740,182.793182 
	C115.782967,186.311783 115.406281,189.090775 112.550194,191.130753 
	C109.744812,193.134537 107.234642,191.925232 104.679779,190.503174 
	C103.530052,189.863205 102.210556,189.536331 101.018204,188.963150 
	C98.717308,187.857101 96.865219,186.297653 98.546745,183.561676 
	C100.021927,181.161438 102.231880,180.385544 104.953979,181.922607 
	C106.631973,182.870102 107.615067,184.893005 110.303528,185.155685 
	C107.194572,178.928085 101.639114,177.069824 95.950233,175.472427 
	C94.246513,174.994064 91.635757,175.232773 91.913773,172.834534 
	C92.239395,170.025620 94.887344,170.758545 96.740334,171.157791 
	C104.046501,172.731995 110.737663,175.370697 114.777740,182.793182 
z"/>
<path fill="#000000" opacity="1.000000" stroke="none" 
	d="
M82.267654,179.847534 
	C81.251595,182.167038 82.130188,182.535889 83.928207,182.001160 
	C86.155472,181.338806 88.330498,180.449951 90.740097,180.686615 
	C92.664238,180.875595 93.818527,181.900650 94.084030,183.780075 
	C94.358910,185.725937 92.902573,186.441940 91.435318,186.839447 
	C87.722427,187.845367 83.899452,188.452576 80.074974,188.045944 
	C75.952576,187.607651 74.056702,182.800354 76.505081,178.643463 
	C78.719032,174.884552 81.988686,172.129471 86.458420,170.493652 
	C87.968323,175.075195 84.151642,176.858429 82.267654,179.847534 
z"/>
</svg>